# AST/ASF file generated using VICON BodyLanguage
# -----------------------------------------------
:version 1.10
:name VICON
:units
  mass 1.0
  length 0.45
  angle deg
:documentation
   .ast/.asf automatically generated from VICON data using
   VICON BodyBuilder and BodyLanguage model FoxedUp or BRILLIANT.MOD
:root
   order TX TY TZ RX RY RZ
   axis XYZ
   position 0 0 0  
   orientation 0 0 0 
:bonedata
  begin
     id 1 
     name lhipjoint
     direction 0.576517 -0.752066 0.319413 
     length 2.45433 
     axis 0 0 0  XYZ
  end
  begin
     id 2 
     name lfemur
     direction 0.34202 -0.939693 0  
     length 7.54459  
     axis 0 0 20  XYZ
    dof rx ry rz
    limits (-160.0 20.0)
           (-70.0 70.0)
           (-60.0 70.0)
  end
  begin
     id 3 
     name ltibia
     direction 0.34202 -0.939693 0   
     length 7.73986   
     axis 0 0 20   XYZ
    dof rx
    limits (-10.0 170.0)
  end
  begin
     id 4 
     name lfoot
     direction 0.090693 -0.249177 0.964202   
     length 2.28437   
     axis -90 7.62852e-016 20   XYZ
    dof rx rz
    limits (-45.0 90.0)
           (-70.0 20.0)
  end
  begin
     id 5 
     name ltoes
     direction 1.5356e-011 -4.21928e-011 1   
     length 1.14243   
     axis -90 7.62852e-016 20   XYZ
    dof rx
    limits (-90.0 20.0)
  end
  begin
     id 6 
     name rhipjoint
     direction -0.573937 -0.753736 0.320122   
     length 2.44889  
     axis 0 0 0  XYZ 
  end
  begin
     id 7 
     name rfemur
     direction -0.34202 -0.939693 0   
     length 7.50166   
     axis 0 0 -20   XYZ
    dof rx ry rz
    limits (-160.0 20.0)
           (-70.0 70.0)
           (-70.0 60.0)
  end
  begin
     id 8 
     name rtibia
     direction -0.34202 -0.939693 0   
     length 7.54266   
     axis 0 0 -20   XYZ
    dof rx
    limits (-10.0 170.0)
 end
 begin
     id 9 
     name rfoot
     direction -0.114017 -0.31326 0.942798   
     length 2.34212  
     axis -90 -7.62852e-016 -20   XYZ
    dof rx rz
    limits (-45.0 90.0)
           (-20.0 70.0)
  end
  begin
     id 10 
     name rtoes
     direction -1.53557e-011 -4.21867e-011 1   
     length 1.16246   
     axis -90 -7.62852e-016 -20   XYZ
    dof rx
    limits (-90.0 20.0)
  end
  begin
     id 11 
     name lowerback
     direction -0.0228371 0.999155 -0.034167   
     length 2.0537   
     axis 0 0 0   XYZ
    dof rx ry rz
    limits (-20.0 45.0)
           (-30.0 30.0)
           (-30.0 30.0)
  end
  begin
     id 12 
     name upperback
     direction 0.0198981 0.999794 0.00389455   
     length 2.05302   
     axis 0 0 0   XYZ
    dof rx ry rz
    limits (-20.0 45.0)
           (-30.0 30.0)
           (-30.0 30.0)
  end
  begin
     id 13 
     name thorax
     direction 0.0304566 0.99935 0.0192987   
     length 2.05315   
     axis 0 0 0   XYZ
    dof rx ry rz
    limits (-20.0 45.0)
           (-30.0 30.0)
           (-30.0 30.0)
  end
  begin
     id 14 
     name lowerneck
     direction -0.0196762 0.99417 0.106017   
     length 1.82056   
     axis 0 0 0   XYZ
    dof rx ry rz
    limits (-20.0 45.0)
           (-30.0 30.0)
           (-30.0 30.0)
  end
  begin
     id 15 
     name upperneck
     direction 0.00517787 0.9802 -0.197944   
     length 1.83835   
     axis 0 0 0   XYZ
    dof rx ry rz
    limits (-20.0 45.0)
           (-30.0 30.0)
           (-30.0 30.0)
  end
  begin
     id 16
     name head
     direction 0.00211419 0.996945 -0.078081  
     length 1.85629  
     axis 0 0 0   XYZ
    dof rx ry rz
    limits (-20.0 45.0)
           (-30.0 30.0)
           (-30.0 30.0)
  end
  begin
     id 17 
     name lclavicle
     direction 0.930001 0.365811 -0.0357824  
     length 3.81961  
     axis 0 0 0   XYZ
    dof ry rz
    limits (-20.0 10.0)
           (0.0 20.0)
  end
  begin
     id 18 
     name lhumerus
     direction 1 -4.48968e-011 -3.06644e-027   
     length 5.14507   
     axis 180 -30 -90   XYZ
    dof rx ry rz
    limits (-60.0 90.0)
           (-90.0 90.0)
           (-90.0 90.0)
  end
  begin
     id 19
     name lradius
     direction 1 -4.48965e-011 9.06925e-028   
     length 3.50646   
     axis 180 -30 -90   XYZ
    dof rx
    limits (-10.0 170.0)
  end
  begin
     id 20
     name lwrist
     direction 1 -4.48957e-011 1.03922e-027   
     length 1.75323   
     axis -2.56395e-016 90 90   XYZ
    dof ry
    limits (-180.0 0.0)
 end
  begin
     id 21 
     name lhand
     direction 1 -4.48967e-011 2.08017e-027   
     length 0.629969   
     axis -1.32723e-015 90 90   XYZ
    dof rx rz
    limits (-90.0 90.0)
           (-45.0 45.0)
  end
  begin
     id 22 
     name lfingers
     direction 1 -4.49089e-011 4.20095e-027   
     length 0.507897   
     axis -2.6545e-015 90 90   XYZ
    dof rx
    limits (0.0 90.0)
  end
  begin
     id 23
     name lthumb
     direction 0.707107 -6.35001e-011 0.707107   
     length 0.729241   
     axis -90 45 5.05613e-014   XYZ
    dof rx rz
    limits (-45.0 45.0)
           (-45.0 45.0)
  end
  begin
     id 24 
     name rclavicle
     direction -0.881882 0.464123 -0.0829113   
     length 3.47515  
     axis 0 0 0   XYZ 
    dof ry rz
    limits (-10.0 20.0)
           (-20.0 0.0)
  end
  begin
     id 25 
     name rhumerus
     direction -1 -4.48961e-011 -1.55672e-027  
     length 5.232   
     axis 180 30 90   XYZ
    dof rx ry rz
    limits (-90.0 60.0)
           (-90.0 90.0)
           (-90.0 90.0)
  end
  begin
     id 26 
     name rradius
     direction -1 -4.48963e-011 6.18178e-029   
     length 3.65641   
     axis 180 30 90   XYZ
    dof rx
    limits (-10.0 170.0)
  end
  begin
     id 27 
     name rwrist
     direction -1 -4.48982e-011 1.04136e-027   
     length 1.8282   
     axis -2.56395e-016 -90 -90   XYZ
    dof ry
    limits (-180.0 0.0)
  end
  begin
     id 28
     name rhand
     direction -1 -4.48929e-011 2.07378e-027   
     length 0.656807   
     axis -1.32723e-015 -90 -90   XYZ
    dof rx rz
    limits (-90.0 90.0)
           (-45.0 45.0)
  end
  begin
     id 29
     name rfingers
     direction -1 -4.489e-011 4.13816e-027   
     length 0.529535   
     axis -2.6545e-015 -90 -90   XYZ
    dof rx
    limits (0.0 90.0)
  end
  begin
     id 30
     name rthumb
     direction -0.707107 -6.34843e-011 0.707107   
     length 0.760309   
     axis -90 -45 -5.05613e-014   XYZ
    dof rx rz
    limits (-45.0 45.0)
           (-45.0 45.0)
  end
:hierarchy
  begin
    root lhipjoint rhipjoint lowerback
    lhipjoint lfemur
    lfemur ltibia
    ltibia lfoot
    lfoot ltoes
    rhipjoint rfemur
    rfemur rtibia
    rtibia rfoot
    rfoot rtoes
    lowerback upperback
    upperback thorax
    thorax lowerneck lclavicle rclavicle
    lowerneck upperneck
    upperneck head
    lclavicle lhumerus
    lhumerus lradius
    lradius lwrist
    lwrist lhand lthumb
    lhand lfingers
    rclavicle rhumerus
    rhumerus rradius
    rradius rwrist
    rwrist rhand rthumb
    rhand rfingers
  end

#!OML:ASF H:\ManfredETheater\Project 1\Capture day 1\Session 1\subject.ASF
:FULLY-SPECIFIED
:DEGREES
1
root -1.28125 16.4251 -43.7217 24.8959 -4.98206 -8.85076
lowerback 15.4057 3.84762 5.20255
upperback 1.0801 6.0663 1.46192
thorax -7.08262 2.79094 -2.63039
lowerneck -19.5621 -2.78456 -1.82789
upperneck 6.01809 -3.34202 0.715975
head 4.97272 -1.63465 0.192524
rclavicle 8.15017e-015 1.35174e-014
rhumerus -18.9833 20.8035 -81.6426
rradius 108.813
rwrist -6.13907
rhand -27.6412 1.32243
rfingers 7.12502
rthumb -1.03938 -28.6548
lclavicle 8.15017e-015 1.35174e-014
lhumerus -85.6236 -5.13578 84.7356
lradius 92.5555
lwrist 22.5644
lhand -24.1925 -11.1183
lfingers 7.12502
lthumb 2.29145 18.8491
rfemur 12.9234 4.46407 23.8661
rtibia 23.5355
rfoot 26.0487 -6.77841
rtoes -34.2321
lfemur -80.3739 10.8153 -25.1047
ltibia 56.078
lfoot -4.1795 -11.7749
ltoes -22.2216
2
root -1.28874 16.3921 -43.2298 24.6417 -4.71795 -9.01144
lowerback 15.6215 3.88109 5.1859
upperback 1.18451 6.11611 1.48107
thorax -7.08972 2.81599 -2.62359
lowerneck -19.6121 -2.95394 -1.89115
upperneck 5.98384 -3.57011 0.885634
head 4.97647 -1.73545 0.233286
rclavicle -2.56432e-014 -2.54444e-014
rhumerus -20.1438 19.6618 -82.7748
rradius 106.491
rwrist -6.43056
rhand -27.5415 0.711274
rfingers 7.12502
rthumb -0.943087 -29.2664
lclavicle -2.56432e-014 -2.54444e-014
lhumerus -83.8549 -4.06621 84.9162
lradius 92.2919
lwrist 22.3449
lhand -24.1136 -10.9601
lfingers 7.12502
lthumb 2.36764 19.0065
rfemur 11.0784 3.69916 23.8973
rtibia 28.7134
rfoot 23.3387 -9.70499
rtoes -27.5631
lfemur -79.192 10.9979 -25.432
ltibia 57.1713
lfoot -4.00131 -11.9065
ltoes -22.7697
3
root -1.29598 16.3701 -42.7388 24.4615 -4.19237 -8.95008
lowerback 15.8541 3.79932 5.06837
upperback 1.14754 6.00914 1.52499
thorax -7.28356 2.76029 -2.51238
lowerneck -19.4727 -3.07312 -2.09995
upperneck 5.9199 -3.70692 1.12663
head 4.94522 -1.79078 0.33117
rclavicle -7.35503e-015 2.42517e-014
rhumerus -21.5089 18.5392 -83.8427
rradius 104.012
rwrist -6.8655
rhand -27.6322 0.0301102
rfingers 7.12502
rthumb -1.03072 -29.9471
lclavicle -7.35503e-015 2.42517e-014
lhumerus -81.9849 -2.93872 85.1812
lradius 91.7107
lwrist 21.5238
lhand -23.848 -11.0811
lfingers 7.12502
lthumb 2.62416 18.8825
rfemur 8.5936 2.5964 23.8926
rtibia 34.0337
rfoot 21.7023 -10.5517
rtoes -27.9358
lfemur -77.9553 10.904 -25.9015
ltibia 58.5426
lfoot -4.59854 -13.0463
ltoes -7.97041
4
root -1.30523 16.3391 -42.247 24.2223 -3.6952 -8.83985
lowerback 16.0217 3.72099 4.97149
upperback 1.13949 5.89613 1.47185
thorax -7.39706 2.70344 -2.50637
lowerneck -19.241 -3.19743 -2.17423
upperneck 5.7501 -3.8914 1.42501
head 4.86657 -1.86287 0.423389
rclavicle 2.34566e-014 -1.92821e-014
rhumerus -22.9657 17.1514 -85.0016
rradius 101.379
rwrist -7.51455
rhand -27.733 -0.65718
rfingers 7.12502
rthumb -1.128 -30.6339
lclavicle 2.34566e-014 -1.92821e-014
lhumerus -79.8014 -2.01517 85.4574
lradius 90.9042
lwrist 20.3383
lhand -23.9031 -10.906
lfingers 7.12502
lthumb 2.57093 19.0582
rfemur 6.46119 1.5449 23.828
rtibia 38.7896
rfoot 19.9765 -11.2999
rtoes -32.3046
lfemur -76.6122 10.8685 -26.5333
ltibia 59.9732
lfoot -7.25389 -16.029
ltoes 0.553547
5
root -1.30225 16.3336 -41.7547 23.9097 -3.00869 -7.85647
lowerback 16.3568 3.49386 4.39378
upperback 1.10575 5.49166 1.18103
thorax -7.67173 2.51241 -2.43887
lowerneck -19.1704 -3.32379 -2.16584
upperneck 5.42835 -4.09223 1.72709
head 4.76434 -1.94093 0.50137
rclavicle -1.17283e-014 -1.94809e-014
rhumerus -24.5345 15.641 -86.0887
rradius 98.3663
rwrist -8.51018
rhand -28.2762 -0.87871
rfingers 7.12502
rthumb -1.65263 -30.8521
lclavicle -1.17283e-014 -1.94809e-014
lhumerus -76.9516 -1.42526 85.7647
lradius 89.4833
lwrist 19.5016
lhand -24.4677 -10.7449
lfingers 7.12502
lthumb 2.02565 19.2252
rfemur 3.81451 -0.0511398 22.8985
rtibia 43.5974
rfoot 17.8473 -11.6857
rtoes -30.9514
lfemur -74.9391 9.99067 -27.4788
ltibia 61.5592
lfoot -9.79772 -15.0498
ltoes 5.81365
6
root -1.30568 16.3024 -41.2704 23.6298 -2.44598 -7.13967
lowerback 16.6715 3.3407 3.878
upperback 1.09464 5.19571 0.983743
thorax -7.90405 2.3761 -2.32222
lowerneck -19.0145 -3.43652 -2.20408
upperneck 5.14166 -4.26032 1.99039
head 4.66038 -2.00804 0.578633
rclavicle -1.21259e-014 -1.45113e-014
rhumerus -25.8937 14.0582 -87.017
rradius 95.5938
rwrist -9.35887
rhand -28.4607 -1.26255
rfingers 7.12502
rthumb -1.83088 -31.2344
lclavicle -1.21259e-014 -1.45113e-014
lhumerus -74.4006 -0.696995 86.1602
lradius 88.3552
lwrist 18.9052
lhand -24.8646 -10.5421
lfingers 7.12502
lthumb 1.64236 19.4313
rfemur 1.4626 -1.35701 22.2165
rtibia 48.2835
rfoot 15.7732 -12.3492
rtoes -30.6695
lfemur -73.4286 9.43504 -28.2826
ltibia 63.0232
lfoot -11.886 -14.7502
ltoes 11.2138
7
root -1.3087 16.2606 -40.7924 23.3343 -1.87967 -6.19798
lowerback 17.023 3.16788 3.18599
upperback 1.0884 4.83263 0.735005
thorax -8.16197 2.21353 -2.14563
lowerneck -18.8146 -3.53084 -2.21873
upperneck 4.77682 -4.40521 2.22969
head 4.52435 -2.06638 0.648318
rclavicle 1.58034e-014 -4.57205e-015
rhumerus -27.2237 12.3849 -87.8416
rradius 92.7599
rwrist -10.31
rhand -28.6769 -1.55708
rfingers 7.12502
rthumb -2.03962 -31.5271
lclavicle 1.58034e-014 -4.57205e-015
lhumerus -71.6575 -0.0365932 86.6158
lradius 87.0581
lwrist 18.5251
lhand -25.4218 -10.3074
lfingers 7.12502
lthumb 1.10422 19.6695
rfemur -1.02486 -2.74153 21.2936
rtibia 52.9735
rfoot 13.5432 -12.7989
rtoes -30.4628
lfemur -71.8708 8.7178 -29.215
ltibia 64.451
lfoot -14.0124 -13.9481
ltoes 15.4416
8
root -1.31029 16.2161 -40.3188 23.0256 -1.34027 -5.0753
lowerback 17.4091 2.99015 2.3346
upperback 1.09756 4.42266 0.451343
thorax -8.4284 2.03547 -1.90267
lowerneck -18.5838 -3.6046 -2.21247
upperneck 4.34699 -4.52115 2.42649
head 4.36181 -2.1144 0.705342
rclavicle -7.31528e-014 8.74653e-015
rhumerus -28.5048 10.6481 -88.5348
rradius 89.9025
rwrist -11.3821
rhand -28.9295 -1.78692
rfingers 7.12502
rthumb -2.2836 -31.7544
lclavicle -7.31528e-014 8.74653e-015
lhumerus -68.7215 0.575209 87.1404
lradius 85.6056
lwrist 18.4382
lhand -26.1172 -10.087
lfingers 7.12502
lthumb 0.432515 19.8923
rfemur -3.61032 -4.16361 20.1481
rtibia 57.569
rfoot 11.122 -13.1121
rtoes -30.0675
lfemur -70.1974 7.88211 -30.2409
ltibia 65.7326
lfoot -16.0416 -12.7381
ltoes 18.0543
9
root -1.30934 16.1698 -39.8493 22.7155 -0.845529 -3.83727
lowerback 17.8217 2.81783 1.36924
upperback 1.11953 3.98763 0.159263
thorax -8.69582 1.85201 -1.59355
lowerneck -18.3321 -3.65759 -2.2006
upperneck 3.88342 -4.60346 2.56629
head 4.18382 -2.15065 0.747618
rclavicle -5.02925e-014 7.15625e-015
rhumerus -29.744 8.88682 -89.063
rradius 87.0726
rwrist -12.6203
rhand -29.2179 -2.00009
rfingers 7.12502
rthumb -2.56217 -31.9645
lclavicle -5.02925e-014 7.15625e-015
lhumerus -65.6069 1.15968 87.7506
lradius 84.0192
lwrist 18.6352
lhand -26.8875 -9.95092
lfingers 7.12502
lthumb -0.311463 20.0286
rfemur -6.34428 -5.59599 18.8301
rtibia 62.1042
rfoot 8.50736 -13.3199
rtoes -29.4473
lfemur -68.4187 6.95811 -31.2967
ltibia 66.9109
lfoot -17.9618 -11.2879
ltoes 19.8906
10
root -1.30456 16.1216 -39.3839 22.4255 -0.4202 -2.57762
lowerback 18.2397 2.6623 0.362346
upperback 1.14368 3.55759 -0.115409
thorax -8.95779 1.67573 -1.23718
lowerneck -18.0818 -3.69071 -2.20685
upperneck 3.43627 -4.6504 2.66151
head 4.01015 -2.17302 0.78205
rclavicle 5.1684e-014 -5.76476e-015
rhumerus -30.9612 7.14601 -89.4043
rradius 84.3061
rwrist -14.0445
rhand -29.5478 -2.21894
rfingers 7.12502
rthumb -2.88079 -32.1792
lclavicle 5.1684e-014 -5.76476e-015
lhumerus -62.3362 1.72177 88.4542
lradius 82.3344
lwrist 19.0206
lhand -27.6507 -9.96859
lfingers 7.12502
lthumb -1.04855 20.0086
rfemur -9.24699 -6.99707 17.4248
rtibia 66.522
rfoot 5.77752 -13.4235
rtoes -29.0011
lfemur -66.551 6.00242 -32.3152
ltibia 67.9531
lfoot -19.8524 -9.81398
ltoes 21.0977
11
root -1.29464 16.0715 -38.9227 22.1778 -0.0746568 -1.39177
lowerback 18.6395 2.52655 -0.598066
upperback 1.15477 3.15669 -0.350988
thorax -9.21299 1.51521 -0.865809
lowerneck -17.8546 -3.70964 -2.24668
upperneck 3.05282 -4.669 2.72872
head 3.85956 -2.18326 0.814687
rclavicle -4.9398e-014 2.18663e-015
rhumerus -32.1911 5.46589 -89.5463
rradius 81.6499
rwrist -15.6545
rhand -29.9559 -2.48348
rfingers 7.12502
rthumb -3.2749 -32.4381
lclavicle -4.9398e-014 2.18663e-015
lhumerus -58.9506 2.24844 89.2529
lradius 80.6118
lwrist 19.4286
lhand -28.3259 -10.1888
lfingers 7.12502
lthumb -1.70063 19.7842
rfemur -12.3556 -8.32612 16.0366
rtibia 70.7827
rfoot 3.02953 -13.4731
rtoes -28.7342
lfemur -64.624 5.05876 -33.2223
ltibia 68.8569
lfoot -21.7581 -8.49746
ltoes 22.0391
12
root -1.27916 16.0181 -38.466 21.9905 0.183205 -0.355806
lowerback 18.998 2.41244 -1.44019
upperback 1.14029 2.80548 -0.536325
thorax -9.46102 1.37742 -0.514013
lowerneck -17.6893 -3.72023 -2.32402
upperneck 2.77831 -4.66872 2.78841
head 3.75265 -2.18393 0.850534
rclavicle -2.98177e-016 8.34896e-015
rhumerus -33.4543 3.8694 -89.4842
rradius 79.1132
rwrist -17.3291
rhand -30.4196 -2.72929
rfingers 7.12502
rthumb -3.72271 -32.6765
lclavicle -2.98177e-016 8.34896e-015
lhumerus -55.5125 2.69666 90.1455
lradius 78.9553
lwrist 19.6408
lhand -28.8657 -10.5583
lfingers 7.12502
lthumb -2.22204 19.4099
rfemur -15.7039 -9.55388 14.7653
rtibia 74.8503
rfoot 0.363682 -13.4983
rtoes -28.7361
lfemur -62.6691 4.16664 -33.9663
ltibia 69.6314
lfoot -23.7028 -7.43258
ltoes 22.9922
